<mxfile host="app.diagrams.net" modified="2021-05-07T00:09:31.562Z" agent="5.0 (Windows NT 10.0; Win64; x64) AppleWebKit/537.36 (KHTML, like Gecko) Chrome/90.0.4430.93 Safari/537.36" etag="DA_sShz1jxtMBNgEB1vE" version="14.6.10" type="github">
  <diagram id="2XBkz0j24pzHfjrLxlsG" name="Spring系统架构图">
    <mxGraphModel dx="1422" dy="794" grid="1" gridSize="10" guides="1" tooltips="1" connect="1" arrows="1" fold="1" page="1" pageScale="1" pageWidth="827" pageHeight="1169" math="0" shadow="0">
      <root>
        <mxCell id="0" />
        <mxCell id="1" parent="0" />
        <mxCell id="4bulEZh3BegxQqWOBSuj-1" value="spring-core" style="rounded=0;whiteSpace=wrap;html=1;" vertex="1" parent="1">
          <mxGeometry x="50" y="30" width="90" height="40" as="geometry" />
        </mxCell>
        <mxCell id="4bulEZh3BegxQqWOBSuj-3" style="edgeStyle=orthogonalEdgeStyle;rounded=0;orthogonalLoop=1;jettySize=auto;html=1;exitX=0.5;exitY=0;exitDx=0;exitDy=0;entryX=0.5;entryY=1;entryDx=0;entryDy=0;" edge="1" parent="1" source="4bulEZh3BegxQqWOBSuj-2" target="4bulEZh3BegxQqWOBSuj-1">
          <mxGeometry relative="1" as="geometry" />
        </mxCell>
        <mxCell id="4bulEZh3BegxQqWOBSuj-2" value="spring-beans" style="rounded=0;whiteSpace=wrap;html=1;" vertex="1" parent="1">
          <mxGeometry x="50" y="100" width="90" height="40" as="geometry" />
        </mxCell>
        <mxCell id="3VSSTe3hvWDWiHQXjD09-2" style="edgeStyle=orthogonalEdgeStyle;rounded=0;orthogonalLoop=1;jettySize=auto;html=1;exitX=0.5;exitY=0;exitDx=0;exitDy=0;entryX=0.5;entryY=1;entryDx=0;entryDy=0;" edge="1" parent="1" source="3VSSTe3hvWDWiHQXjD09-1" target="4bulEZh3BegxQqWOBSuj-2">
          <mxGeometry relative="1" as="geometry">
            <mxPoint x="95" y="150" as="targetPoint" />
          </mxGeometry>
        </mxCell>
        <mxCell id="3VSSTe3hvWDWiHQXjD09-4" value="" style="edgeStyle=orthogonalEdgeStyle;rounded=0;orthogonalLoop=1;jettySize=auto;html=1;" edge="1" parent="1" source="3VSSTe3hvWDWiHQXjD09-1" target="3VSSTe3hvWDWiHQXjD09-3">
          <mxGeometry relative="1" as="geometry" />
        </mxCell>
        <mxCell id="3VSSTe3hvWDWiHQXjD09-1" value="spring-aop" style="rounded=0;whiteSpace=wrap;html=1;" vertex="1" parent="1">
          <mxGeometry x="50" y="170" width="90" height="40" as="geometry" />
        </mxCell>
        <mxCell id="3VSSTe3hvWDWiHQXjD09-6" value="" style="edgeStyle=orthogonalEdgeStyle;rounded=0;orthogonalLoop=1;jettySize=auto;html=1;" edge="1" parent="1" source="3VSSTe3hvWDWiHQXjD09-3" target="3VSSTe3hvWDWiHQXjD09-5">
          <mxGeometry relative="1" as="geometry" />
        </mxCell>
        <mxCell id="3VSSTe3hvWDWiHQXjD09-3" value="spring-context" style="rounded=0;whiteSpace=wrap;html=1;" vertex="1" parent="1">
          <mxGeometry x="220" y="170" width="90" height="40" as="geometry" />
        </mxCell>
        <mxCell id="3VSSTe3hvWDWiHQXjD09-7" style="edgeStyle=orthogonalEdgeStyle;rounded=0;orthogonalLoop=1;jettySize=auto;html=1;exitX=0;exitY=0.5;exitDx=0;exitDy=0;entryX=1;entryY=0.5;entryDx=0;entryDy=0;" edge="1" parent="1" source="3VSSTe3hvWDWiHQXjD09-5" target="4bulEZh3BegxQqWOBSuj-1">
          <mxGeometry relative="1" as="geometry" />
        </mxCell>
        <mxCell id="3VSSTe3hvWDWiHQXjD09-5" value="spring-expression" style="rounded=0;whiteSpace=wrap;html=1;" vertex="1" parent="1">
          <mxGeometry x="220" y="30" width="90" height="40" as="geometry" />
        </mxCell>
      </root>
    </mxGraphModel>
  </diagram>
</mxfile>
